<svg xmlns="http://www.w3.org/2000/svg" xmlns:xlink="http://www.w3.org/1999/xlink" width="500" zoomAndPan="magnify" viewBox="0 0 375 149.999998" height="200" preserveAspectRatio="xMidYMid meet" version="1.0"><defs><g/><clipPath id="id1"><path d="M 38 17.171875 L 68 17.171875 L 68 50 L 38 50 Z M 38 17.171875 " clip-rule="nonzero"/></clipPath><clipPath id="id2"><path d="M 15 36 L 93 36 L 93 132.671875 L 15 132.671875 Z M 15 36 " clip-rule="nonzero"/></clipPath><clipPath id="id3"><path d="M 21 36 L 100 36 L 100 132.671875 L 21 132.671875 Z M 21 36 " clip-rule="nonzero"/></clipPath><clipPath id="id4"><path d="M 45 17.171875 L 76 17.171875 L 76 50 L 45 50 Z M 45 17.171875 " clip-rule="nonzero"/></clipPath><clipPath id="id5"><path d="M 59 78 L 123 78 L 123 132.671875 L 59 132.671875 Z M 59 78 " clip-rule="nonzero"/></clipPath><clipPath id="id6"><path d="M 66 78 L 129 78 L 129 132.671875 L 66 132.671875 Z M 66 78 " clip-rule="nonzero"/></clipPath></defs><g clip-path="url(#id1)"><path fill="#004aad" d="M 66.101562 49.667969 C 65.160156 49.667969 64.398438 48.90625 64.398438 47.96875 L 64.398438 31.980469 C 64.398438 25.691406 59.261719 20.574219 52.949219 20.574219 C 46.636719 20.574219 41.5 25.691406 41.5 31.980469 L 41.5 47.96875 C 41.5 48.90625 40.738281 49.667969 39.796875 49.667969 C 38.855469 49.667969 38.09375 48.90625 38.09375 47.96875 L 38.09375 31.980469 C 38.09375 23.820312 44.753906 17.179688 52.949219 17.179688 C 61.136719 17.179688 67.804688 23.820312 67.804688 31.980469 L 67.804688 47.96875 C 67.804688 48.90625 67.042969 49.667969 66.101562 49.667969 " fill-opacity="1" fill-rule="nonzero"/></g><path fill="#ffffff" d="M 91.191406 127.289062 C 91.191406 129.550781 89.332031 131.402344 87.058594 131.402344 L 20.425781 131.402344 C 18.152344 131.402344 16.292969 129.550781 16.292969 127.289062 L 24.042969 41.421875 C 24.042969 39.160156 25.902344 37.304688 28.171875 37.304688 L 79.308594 37.304688 C 81.582031 37.304688 83.445312 39.160156 83.445312 41.421875 L 91.191406 127.289062 " fill-opacity="1" fill-rule="nonzero"/><g clip-path="url(#id2)"><path stroke-linecap="round" transform="matrix(0.0505462, 0, 0, -0.0503707, -35.461317, 181.381076)" fill="none" stroke-linejoin="round" d="M 2505.680231 1073.878738 C 2505.680231 1028.977254 2468.894609 992.140976 2423.917231 992.140976 L 1105.662739 992.140976 C 1060.685361 992.140976 1023.899739 1028.977254 1023.899739 1073.878738 L 1177.224684 2778.584121 C 1177.224684 2823.485604 1214.010306 2860.321882 1258.910403 2860.321882 L 2270.592286 2860.321882 C 2315.569664 2860.321882 2352.432567 2823.485604 2352.432567 2778.584121 Z M 2505.680231 1073.878738 " stroke="#000000" stroke-width="50" stroke-opacity="1" stroke-miterlimit="10"/></g><path fill="#ffffff" d="M 97.957031 127.289062 C 97.957031 129.550781 96.09375 131.402344 93.824219 131.402344 L 27.191406 131.402344 C 24.917969 131.402344 23.054688 129.550781 23.054688 127.289062 L 30.808594 41.421875 C 30.808594 39.160156 32.664062 37.304688 34.941406 37.304688 L 86.078125 37.304688 C 88.347656 37.304688 90.207031 39.160156 90.207031 41.421875 L 97.957031 127.289062 " fill-opacity="1" fill-rule="nonzero"/><g clip-path="url(#id3)"><path stroke-linecap="round" transform="matrix(0.0505462, 0, 0, -0.0503707, -35.461317, 181.381076)" fill="none" stroke-linejoin="round" d="M 2639.530435 1073.878738 C 2639.530435 1028.977254 2602.667533 992.140976 2557.767435 992.140976 L 1239.512943 992.140976 C 1194.535565 992.140976 1157.672662 1028.977254 1157.672662 1073.878738 L 1311.074888 2778.584121 C 1311.074888 2823.485604 1347.783229 2860.321882 1392.837888 2860.321882 L 2404.519771 2860.321882 C 2449.419868 2860.321882 2486.20549 2823.485604 2486.20549 2778.584121 Z M 2639.530435 1073.878738 " stroke="#000000" stroke-width="50" stroke-opacity="1" stroke-miterlimit="10"/></g><path fill="#ffffff" d="M 51.070312 47.96875 C 51.070312 50.144531 49.292969 51.910156 47.117188 51.910156 C 44.933594 51.910156 43.164062 50.144531 43.164062 47.96875 C 43.164062 45.792969 44.933594 44.03125 47.117188 44.03125 C 49.292969 44.03125 51.070312 45.792969 51.070312 47.96875 " fill-opacity="1" fill-rule="nonzero"/><path stroke-linecap="round" transform="matrix(0.0505462, 0, 0, -0.0503707, -35.461317, 181.381076)" fill="none" stroke-linejoin="round" d="M 1711.929974 2648.610223 C 1711.929974 2605.41484 1676.767247 2570.362214 1633.721887 2570.362214 C 1590.521965 2570.362214 1555.5138 2605.41484 1555.5138 2648.610223 C 1555.5138 2691.805605 1590.521965 2726.780682 1633.721887 2726.780682 C 1676.767247 2726.780682 1711.929974 2691.805605 1711.929974 2648.610223 Z M 1711.929974 2648.610223 " stroke="#000000" stroke-width="50" stroke-opacity="1" stroke-miterlimit="10"/><path fill="#ffffff" d="M 77.847656 47.96875 C 77.847656 50.144531 76.078125 51.910156 73.902344 51.910156 C 71.71875 51.910156 69.949219 50.144531 69.949219 47.96875 C 69.949219 45.792969 71.71875 44.03125 73.902344 44.03125 C 76.078125 44.03125 77.847656 45.792969 77.847656 47.96875 " fill-opacity="1" fill-rule="nonzero"/><path stroke-linecap="round" transform="matrix(0.0505462, 0, 0, -0.0503707, -35.461317, 181.381076)" fill="none" stroke-linejoin="round" d="M 2241.689298 2648.610223 C 2241.689298 2605.41484 2206.681132 2570.362214 2163.635772 2570.362214 C 2120.435851 2570.362214 2085.427685 2605.41484 2085.427685 2648.610223 C 2085.427685 2691.805605 2120.435851 2726.780682 2163.635772 2726.780682 C 2206.681132 2726.780682 2241.689298 2691.805605 2241.689298 2648.610223 Z M 2241.689298 2648.610223 " stroke="#000000" stroke-width="50" stroke-opacity="1" stroke-miterlimit="10"/><g clip-path="url(#id4)"><path fill="#004aad" d="M 73.65625 49.667969 C 72.71875 49.667969 71.960938 48.90625 71.960938 47.96875 L 71.960938 31.980469 C 71.960938 25.691406 66.824219 20.574219 60.503906 20.574219 C 54.191406 20.574219 49.058594 25.691406 49.058594 31.980469 L 49.058594 47.96875 C 49.058594 48.90625 48.292969 49.667969 47.355469 49.667969 C 46.414062 49.667969 45.65625 48.90625 45.65625 47.96875 L 45.65625 31.980469 C 45.65625 23.820312 52.316406 17.179688 60.503906 17.179688 C 68.699219 17.179688 75.363281 23.820312 75.363281 31.980469 L 75.363281 47.96875 C 75.363281 48.90625 74.597656 49.667969 73.65625 49.667969 " fill-opacity="1" fill-rule="nonzero"/></g><path fill="#004aad" d="M 102.617188 91.863281 C 101.675781 91.863281 100.914062 91.105469 100.914062 90.167969 L 100.914062 74.183594 C 100.914062 67.890625 95.777344 62.773438 89.457031 62.773438 C 83.152344 62.773438 78.011719 67.890625 78.011719 74.183594 L 78.011719 90.167969 C 78.011719 91.105469 77.246094 91.863281 76.304688 91.863281 C 75.371094 91.863281 74.609375 91.105469 74.609375 90.167969 L 74.609375 74.183594 C 74.609375 66.023438 81.269531 59.378906 89.457031 59.378906 C 97.652344 59.378906 104.320312 66.023438 104.320312 74.183594 L 104.320312 90.167969 C 104.320312 91.105469 103.554688 91.863281 102.617188 91.863281 " fill-opacity="1" fill-rule="nonzero"/><path fill="#ffffff" d="M 120.945312 127.289062 C 120.945312 129.550781 119.082031 131.402344 116.808594 131.402344 L 64.640625 131.402344 C 62.367188 131.402344 60.503906 129.550781 60.503906 127.289062 L 60.554688 83.621094 C 60.554688 81.355469 62.417969 79.507812 64.691406 79.507812 L 115.824219 79.507812 C 118.097656 79.507812 119.957031 81.355469 119.957031 83.621094 L 120.945312 127.289062 " fill-opacity="1" fill-rule="nonzero"/><g clip-path="url(#id5)"><path stroke-linecap="round" transform="matrix(0.0505462, 0, 0, -0.0503707, -35.461317, 181.381076)" fill="none" stroke-linejoin="round" d="M 3094.327462 1073.878738 C 3094.327462 1028.977254 3057.46456 992.140976 3012.487182 992.140976 L 1980.403189 992.140976 C 1935.425811 992.140976 1898.562908 1028.977254 1898.562908 1073.878738 L 1899.567558 1940.81084 C 1899.567558 1985.789874 1936.43046 2022.471052 1981.407838 2022.471052 L 2993.012441 2022.471052 C 3037.989819 2022.471052 3074.775441 1985.789874 3074.775441 1940.81084 Z M 3094.327462 1073.878738 " stroke="#000000" stroke-width="50" stroke-opacity="1" stroke-miterlimit="10"/></g><path fill="#ffffff" d="M 127.707031 127.289062 C 127.707031 129.550781 125.847656 131.402344 123.574219 131.402344 L 71.402344 131.402344 C 69.132812 131.402344 67.269531 129.550781 67.269531 127.289062 L 67.320312 83.621094 C 67.320312 81.355469 69.179688 79.507812 71.453125 79.507812 L 122.585938 79.507812 C 124.859375 79.507812 126.722656 81.355469 126.722656 83.621094 L 127.707031 127.289062 " fill-opacity="1" fill-rule="nonzero"/><g clip-path="url(#id6)"><path stroke-linecap="round" transform="matrix(0.0505462, 0, 0, -0.0503707, -35.461317, 181.381076)" fill="none" stroke-linejoin="round" d="M 3228.100386 1073.878738 C 3228.100386 1028.977254 3191.314764 992.140976 3146.337386 992.140976 L 2114.176112 992.140976 C 2069.276015 992.140976 2032.413112 1028.977254 2032.413112 1073.878738 L 2033.417762 1940.81084 C 2033.417762 1985.789874 2070.203384 2022.471052 2115.180762 2022.471052 L 3126.785364 2022.471052 C 3171.762742 2022.471052 3208.625645 1985.789874 3208.625645 1940.81084 Z M 3228.100386 1073.878738 " stroke="#000000" stroke-width="50" stroke-opacity="1" stroke-miterlimit="10"/></g><path fill="#ffffff" d="M 87.582031 90.167969 C 87.582031 92.347656 85.808594 94.105469 83.628906 94.105469 C 81.445312 94.105469 79.679688 92.347656 79.679688 90.167969 C 79.679688 87.992188 81.445312 86.230469 83.628906 86.230469 C 85.808594 86.230469 87.582031 87.992188 87.582031 90.167969 " fill-opacity="1" fill-rule="nonzero"/><path stroke-linecap="round" transform="matrix(0.0505462, 0, 0, -0.0503707, -35.461317, 181.381076)" fill="none" stroke-linejoin="round" d="M 2434.272847 1810.836942 C 2434.272847 1767.56401 2399.187401 1732.666484 2356.064761 1732.666484 C 2312.864839 1732.666484 2277.933954 1767.56401 2277.933954 1810.836942 C 2277.933954 1854.032325 2312.864839 1889.007401 2356.064761 1889.007401 C 2399.187401 1889.007401 2434.272847 1854.032325 2434.272847 1810.836942 Z M 2434.272847 1810.836942 " stroke="#000000" stroke-width="50" stroke-opacity="1" stroke-miterlimit="10"/><path fill="#ffffff" d="M 114.363281 90.167969 C 114.363281 92.347656 112.59375 94.105469 110.410156 94.105469 C 108.230469 94.105469 106.460938 92.347656 106.460938 90.167969 C 106.460938 87.992188 108.230469 86.230469 110.410156 86.230469 C 112.59375 86.230469 114.363281 87.992188 114.363281 90.167969 " fill-opacity="1" fill-rule="nonzero"/><path stroke-linecap="round" transform="matrix(0.0505462, 0, 0, -0.0503707, -35.461317, 181.381076)" fill="none" stroke-linejoin="round" d="M 2964.109452 1810.836942 C 2964.109452 1767.56401 2929.101287 1732.666484 2885.901365 1732.666484 C 2842.778724 1732.666484 2807.770559 1767.56401 2807.770559 1810.836942 C 2807.770559 1854.032325 2842.778724 1889.007401 2885.901365 1889.007401 C 2929.101287 1889.007401 2964.109452 1854.032325 2964.109452 1810.836942 Z M 2964.109452 1810.836942 " stroke="#000000" stroke-width="50" stroke-opacity="1" stroke-miterlimit="10"/><path fill="#004aad" d="M 110.171875 91.863281 C 109.230469 91.863281 108.46875 91.105469 108.46875 90.167969 L 108.46875 74.183594 C 108.46875 67.890625 103.332031 62.773438 97.019531 62.773438 C 90.707031 62.773438 85.570312 67.890625 85.570312 74.183594 L 85.570312 90.167969 C 85.570312 91.105469 84.808594 91.863281 83.867188 91.863281 C 82.929688 91.863281 82.164062 91.105469 82.164062 90.167969 L 82.164062 74.183594 C 82.164062 66.023438 88.828125 59.378906 97.019531 59.378906 C 105.207031 59.378906 111.875 66.023438 111.875 74.183594 L 111.875 90.167969 C 111.875 91.105469 111.113281 91.863281 110.171875 91.863281 " fill-opacity="1" fill-rule="nonzero"/><g fill="#000000" fill-opacity="1"><g transform="translate(159.226751, 73.610456)"><g><path d="M 35.546875 0 L 46.328125 0 L 27.835938 -45.742188 L 18.492188 -45.742188 L 0.523438 0 L 11.042969 0 L 14.179688 -8.625 L 32.34375 -8.625 Z M 23.261719 -33.652344 L 29.273438 -17.25 L 17.25 -17.25 Z M 23.261719 -33.652344 "/></g></g></g><g fill="#000000" fill-opacity="1"><g transform="translate(206.131901, 73.610456)"><g><path d="M 32.738281 -24.113281 C 35.9375 -26.332031 37.898438 -29.992188 37.898438 -33.914062 C 37.898438 -40.644531 32.019531 -45.675781 24.113281 -45.675781 L 5.226562 -45.675781 L 5.226562 0.0664062 L 24.636719 0.0664062 C 32.605469 0.0664062 39.074219 -5.816406 39.074219 -13.132812 C 39.074219 -18.035156 36.722656 -21.957031 32.738281 -24.113281 Z M 28.292969 -32.410156 C 28.292969 -29.535156 26.269531 -27.511719 23.195312 -27.511719 L 14.898438 -27.511719 L 14.898438 -37.246094 L 23.195312 -37.246094 C 26.269531 -37.246094 28.292969 -35.285156 28.292969 -32.410156 Z M 23.71875 -9.015625 L 14.898438 -9.015625 L 14.898438 -19.277344 L 23.71875 -19.277344 C 26.988281 -19.277344 29.144531 -17.121094 29.144531 -14.179688 C 29.144531 -11.175781 26.988281 -9.015625 23.71875 -9.015625 Z M 23.71875 -9.015625 "/></g></g></g><g fill="#000000" fill-opacity="1"><g transform="translate(248.056301, 73.610456)"><g/></g></g><g fill="#000000" fill-opacity="1"><g transform="translate(159.226751, 123.345524)"><g><path d="M 15.890625 -25.578125 C 12.804688 -25.578125 10.367188 -24.546875 8.578125 -22.484375 C 6.796875 -20.429688 5.90625 -17.617188 5.90625 -14.046875 C 5.90625 -10.367188 6.765625 -7.523438 8.484375 -5.515625 C 10.203125 -3.515625 12.660156 -2.515625 15.859375 -2.515625 C 17.816406 -2.515625 20.050781 -2.867188 22.5625 -3.578125 L 22.5625 -0.71875 C 20.613281 0.0195312 18.210938 0.390625 15.359375 0.390625 C 11.210938 0.390625 8.015625 -0.863281 5.765625 -3.375 C 3.523438 -5.894531 2.40625 -9.46875 2.40625 -14.09375 C 2.40625 -16.988281 2.945312 -19.523438 4.03125 -21.703125 C 5.113281 -23.878906 6.675781 -25.554688 8.71875 -26.734375 C 10.757812 -27.910156 13.164062 -28.5 15.9375 -28.5 C 18.882812 -28.5 21.457031 -27.960938 23.65625 -26.890625 L 22.28125 -24.078125 C 20.144531 -25.078125 18.015625 -25.578125 15.890625 -25.578125 Z M 15.890625 -25.578125 "/></g></g></g><g fill="#000000" fill-opacity="1"><g transform="translate(184.052127, 123.345524)"><g><path d="M 21.5625 -10.546875 C 21.5625 -7.117188 20.695312 -4.4375 18.96875 -2.5 C 17.238281 -0.570312 14.847656 0.390625 11.796875 0.390625 C 9.910156 0.390625 8.238281 -0.0507812 6.78125 -0.9375 C 5.320312 -1.820312 4.191406 -3.085938 3.390625 -4.734375 C 2.597656 -6.390625 2.203125 -8.328125 2.203125 -10.546875 C 2.203125 -13.984375 3.0625 -16.660156 4.78125 -18.578125 C 6.5 -20.492188 8.882812 -21.453125 11.9375 -21.453125 C 14.882812 -21.453125 17.222656 -20.46875 18.953125 -18.5 C 20.691406 -16.539062 21.5625 -13.890625 21.5625 -10.546875 Z M 5.515625 -10.546875 C 5.515625 -7.859375 6.050781 -5.804688 7.125 -4.390625 C 8.207031 -2.984375 9.789062 -2.28125 11.875 -2.28125 C 13.96875 -2.28125 15.550781 -2.984375 16.625 -4.390625 C 17.707031 -5.796875 18.25 -7.847656 18.25 -10.546875 C 18.25 -13.222656 17.707031 -15.253906 16.625 -16.640625 C 15.550781 -18.035156 13.957031 -18.734375 11.84375 -18.734375 C 9.75 -18.734375 8.171875 -18.046875 7.109375 -16.671875 C 6.046875 -15.304688 5.515625 -13.265625 5.515625 -10.546875 Z M 5.515625 -10.546875 "/></g></g></g><g fill="#000000" fill-opacity="1"><g transform="translate(207.820706, 123.345524)"><g><path d="M 30.234375 0 L 30.234375 -13.703125 C 30.234375 -15.378906 29.875 -16.632812 29.15625 -17.46875 C 28.4375 -18.3125 27.320312 -18.734375 25.8125 -18.734375 C 23.820312 -18.734375 22.351562 -18.160156 21.40625 -17.015625 C 20.457031 -15.878906 19.984375 -14.128906 19.984375 -11.765625 L 19.984375 0 L 16.796875 0 L 16.796875 -13.703125 C 16.796875 -15.378906 16.4375 -16.632812 15.71875 -17.46875 C 15 -18.3125 13.878906 -18.734375 12.359375 -18.734375 C 10.359375 -18.734375 8.894531 -18.132812 7.96875 -16.9375 C 7.039062 -15.738281 6.578125 -13.773438 6.578125 -11.046875 L 6.578125 0 L 3.375 0 L 3.375 -21.0625 L 5.984375 -21.0625 L 6.5 -18.1875 L 6.65625 -18.1875 C 7.25 -19.207031 8.09375 -20.003906 9.1875 -20.578125 C 10.289062 -21.160156 11.519531 -21.453125 12.875 -21.453125 C 16.164062 -21.453125 18.316406 -20.257812 19.328125 -17.875 L 19.484375 -17.875 C 20.109375 -18.976562 21.015625 -19.847656 22.203125 -20.484375 C 23.398438 -21.128906 24.765625 -21.453125 26.296875 -21.453125 C 28.671875 -21.453125 30.453125 -20.835938 31.640625 -19.609375 C 32.828125 -18.390625 33.421875 -16.429688 33.421875 -13.734375 L 33.421875 0 Z M 30.234375 0 "/></g></g></g><g fill="#000000" fill-opacity="1"><g transform="translate(244.424695, 123.345524)"><g><path d="M 30.234375 0 L 30.234375 -13.703125 C 30.234375 -15.378906 29.875 -16.632812 29.15625 -17.46875 C 28.4375 -18.3125 27.320312 -18.734375 25.8125 -18.734375 C 23.820312 -18.734375 22.351562 -18.160156 21.40625 -17.015625 C 20.457031 -15.878906 19.984375 -14.128906 19.984375 -11.765625 L 19.984375 0 L 16.796875 0 L 16.796875 -13.703125 C 16.796875 -15.378906 16.4375 -16.632812 15.71875 -17.46875 C 15 -18.3125 13.878906 -18.734375 12.359375 -18.734375 C 10.359375 -18.734375 8.894531 -18.132812 7.96875 -16.9375 C 7.039062 -15.738281 6.578125 -13.773438 6.578125 -11.046875 L 6.578125 0 L 3.375 0 L 3.375 -21.0625 L 5.984375 -21.0625 L 6.5 -18.1875 L 6.65625 -18.1875 C 7.25 -19.207031 8.09375 -20.003906 9.1875 -20.578125 C 10.289062 -21.160156 11.519531 -21.453125 12.875 -21.453125 C 16.164062 -21.453125 18.316406 -20.257812 19.328125 -17.875 L 19.484375 -17.875 C 20.109375 -18.976562 21.015625 -19.847656 22.203125 -20.484375 C 23.398438 -21.128906 24.765625 -21.453125 26.296875 -21.453125 C 28.671875 -21.453125 30.453125 -20.835938 31.640625 -19.609375 C 32.828125 -18.390625 33.421875 -16.429688 33.421875 -13.734375 L 33.421875 0 Z M 30.234375 0 "/></g></g></g><g fill="#000000" fill-opacity="1"><g transform="translate(281.028684, 123.345524)"><g><path d="M 12.28125 0.390625 C 9.164062 0.390625 6.707031 -0.554688 4.90625 -2.453125 C 3.101562 -4.347656 2.203125 -6.984375 2.203125 -10.359375 C 2.203125 -13.753906 3.035156 -16.453125 4.703125 -18.453125 C 6.378906 -20.453125 8.628906 -21.453125 11.453125 -21.453125 C 14.085938 -21.453125 16.175781 -20.582031 17.71875 -18.84375 C 19.257812 -17.101562 20.03125 -14.8125 20.03125 -11.96875 L 20.03125 -9.953125 L 5.515625 -9.953125 C 5.578125 -7.484375 6.203125 -5.609375 7.390625 -4.328125 C 8.578125 -3.046875 10.242188 -2.40625 12.390625 -2.40625 C 14.660156 -2.40625 16.90625 -2.878906 19.125 -3.828125 L 19.125 -0.984375 C 18 -0.492188 16.929688 -0.144531 15.921875 0.0625 C 14.910156 0.28125 13.695312 0.390625 12.28125 0.390625 Z M 11.421875 -18.78125 C 9.722656 -18.78125 8.367188 -18.226562 7.359375 -17.125 C 6.359375 -16.019531 5.769531 -14.492188 5.59375 -12.546875 L 16.609375 -12.546875 C 16.609375 -14.554688 16.160156 -16.097656 15.265625 -17.171875 C 14.367188 -18.242188 13.085938 -18.78125 11.421875 -18.78125 Z M 11.421875 -18.78125 "/></g></g></g><g fill="#000000" fill-opacity="1"><g transform="translate(303.10637, 123.345524)"><g><path d="M 12.984375 -21.453125 C 13.921875 -21.453125 14.765625 -21.375 15.515625 -21.21875 L 15.0625 -18.25 C 14.195312 -18.445312 13.429688 -18.546875 12.765625 -18.546875 C 11.054688 -18.546875 9.597656 -17.851562 8.390625 -16.46875 C 7.179688 -15.082031 6.578125 -13.359375 6.578125 -11.296875 L 6.578125 0 L 3.375 0 L 3.375 -21.0625 L 6.015625 -21.0625 L 6.375 -17.15625 L 6.53125 -17.15625 C 7.3125 -18.53125 8.253906 -19.585938 9.359375 -20.328125 C 10.460938 -21.078125 11.671875 -21.453125 12.984375 -21.453125 Z M 12.984375 -21.453125 "/></g></g></g><g fill="#000000" fill-opacity="1"><g transform="translate(319.169849, 123.345524)"><g><path d="M 11.796875 0.390625 C 8.742188 0.390625 6.378906 -0.546875 4.703125 -2.421875 C 3.035156 -4.304688 2.203125 -6.960938 2.203125 -10.390625 C 2.203125 -13.921875 3.050781 -16.644531 4.75 -18.5625 C 6.445312 -20.488281 8.867188 -21.453125 12.015625 -21.453125 C 13.023438 -21.453125 14.035156 -21.34375 15.046875 -21.125 C 16.054688 -20.90625 16.851562 -20.648438 17.4375 -20.359375 L 16.453125 -17.640625 C 15.742188 -17.921875 14.972656 -18.15625 14.140625 -18.34375 C 13.304688 -18.53125 12.570312 -18.625 11.9375 -18.625 C 7.65625 -18.625 5.515625 -15.894531 5.515625 -10.4375 C 5.515625 -7.84375 6.035156 -5.851562 7.078125 -4.46875 C 8.117188 -3.09375 9.664062 -2.40625 11.71875 -2.40625 C 13.476562 -2.40625 15.28125 -2.78125 17.125 -3.53125 L 17.125 -0.71875 C 15.71875 0.0195312 13.941406 0.390625 11.796875 0.390625 Z M 11.796875 0.390625 "/></g></g></g><g fill="#000000" fill-opacity="1"><g transform="translate(337.904179, 123.345524)"><g><path d="M 12.28125 0.390625 C 9.164062 0.390625 6.707031 -0.554688 4.90625 -2.453125 C 3.101562 -4.347656 2.203125 -6.984375 2.203125 -10.359375 C 2.203125 -13.753906 3.035156 -16.453125 4.703125 -18.453125 C 6.378906 -20.453125 8.628906 -21.453125 11.453125 -21.453125 C 14.085938 -21.453125 16.175781 -20.582031 17.71875 -18.84375 C 19.257812 -17.101562 20.03125 -14.8125 20.03125 -11.96875 L 20.03125 -9.953125 L 5.515625 -9.953125 C 5.578125 -7.484375 6.203125 -5.609375 7.390625 -4.328125 C 8.578125 -3.046875 10.242188 -2.40625 12.390625 -2.40625 C 14.660156 -2.40625 16.90625 -2.878906 19.125 -3.828125 L 19.125 -0.984375 C 18 -0.492188 16.929688 -0.144531 15.921875 0.0625 C 14.910156 0.28125 13.695312 0.390625 12.28125 0.390625 Z M 11.421875 -18.78125 C 9.722656 -18.78125 8.367188 -18.226562 7.359375 -17.125 C 6.359375 -16.019531 5.769531 -14.492188 5.59375 -12.546875 L 16.609375 -12.546875 C 16.609375 -14.554688 16.160156 -16.097656 15.265625 -17.171875 C 14.367188 -18.242188 13.085938 -18.78125 11.421875 -18.78125 Z M 11.421875 -18.78125 "/></g></g></g></svg>